<?xml version="1.0" encoding="UTF-8" standalone="no"?>
<svg
  xmlns:dc="http://purl.org/dc/elements/1.1/"
  xmlns:cc="http://creativecommons.org/ns#"
  xmlns:rdf="http://www.w3.org/1999/02/22-rdf-syntax-ns#"
  xmlns:svg="http://www.w3.org/2000/svg"
  xmlns="http://www.w3.org/2000/svg"
  viewBox="0 0 592.29333 592.29333"
  height="592.29333"
  width="592.29333"
  xml:space="preserve"
  version="1.1"
  id="svg2">
  <metadata id="metadata8">
    <rdf:RDF>
      <cc:Work rdf:about="">
        <dc:format>image/svg+xml</dc:format>
        <dc:type rdf:resource="http://purl.org/dc/dcmitype/StillImage" />
      </cc:Work>
    </rdf:RDF>
  </metadata>
  <defs id="defs6" />
  <g transform="matrix(1.3333333,0,0,-1.3333333,0,592.29333)" id="g10">
    <g transform="scale(0.1)" id="g12">
      <path
        id="path14"
        style="fill:#2f2f32;fill-opacity:1;fill-rule:nonzero;stroke:none"
        d="m 1027.51,3208.65 c 0,-99.41 80.59,-180 180,-180 99.41,0 180,80.59 180,180 0,99.41 -80.59,180 -180,180 -99.41,0 -180,-80.59 -180,-180" />
      <path
        id="path16"
        style="fill:#2f2f32;fill-opacity:1;fill-rule:nonzero;stroke:none"
        d="m 1387.51,1207.51 c 0,99.41 -80.59,180 -180,180 -99.41,0 -180,-80.59 -180,-180 0,-99.41 80.59,-180 180,-180 99.41,0 180,80.59 180,180" />
      <path
        id="path18"
        style="fill:#2f2f32;fill-opacity:1;fill-rule:nonzero;stroke:none"
        d="m 3414.65,1207.51 c 0,99.41 -80.59,180 -180,180 -99.41,0 -180,-80.59 -180,-180 0,-99.41 80.59,-180 180,-180 99.41,0 180,80.59 180,180" />
      <path
        id="path20"
        style="fill:#2f2f32;fill-opacity:1;fill-rule:nonzero;stroke:none"
        d="m 3414.65,3208.65 c 0,99.41 -80.59,180 -180,180 -99.41,0 -180,-80.59 -180,-180 0,-99.41 80.59,-180 180,-180 99.41,0 180,80.59 180,180" />
      <path
        id="path22"
        style="fill:#2f2f32;fill-opacity:1;fill-rule:nonzero;stroke:none"
        d="m 4082.16,4442.16 -1386.58,0 -1023.27,-1023.27 c 22.63,-57.03 35.2,-119.15 35.2,-184.24 0,-276.14 -223.86,-500 -500,-500 -276.143,0 -500.002,223.86 -500.002,500 0,276.14 223.859,500 500.002,500 79.08,0 153.84,-18.43 220.32,-51.12 l 758.63,758.63 -1826.46,0 c -198.824,0 -360,-161.18 -360,-360 L 0,2669.57 1004.95,1664.63 c 61.93,27.48 130.43,42.88 202.56,42.88 72.13,0 140.62,-15.4 202.56,-42.88 l 1367.46,1367.46 c -27.48,61.94 -42.88,130.43 -42.88,202.56 0,276.14 223.86,500 500,500 276.15,0 500,-223.86 500,-500 0,-79.09 -18.43,-153.84 -51.12,-220.32 l 758.63,-758.63 0,1826.46 c 0,198.82 -161.18,360 -360,360" />
      <path
        id="path24"
        style="fill:#2f2f32;fill-opacity:1;fill-rule:nonzero;stroke:none"
        d="m 3234.65,2734.65 c -72.12,0 -140.62,15.4 -202.56,42.88 L 1664.63,1410.07 c 27.48,-61.94 42.88,-130.44 42.88,-202.56 0,-276.151 -223.86,-499.998 -500,-499.998 -276.143,0 -500.002,223.847 -500.002,499.998 0,72.12 15.394,140.62 42.883,202.56 L 0,2160.46 0,360 C 0,161.18 161.176,0 360,0 l 1412.59,0 1004.94,1004.95 c -27.48,61.93 -42.88,130.43 -42.88,202.56 0,276.14 223.86,500 500,500 276.15,0 500,-223.86 500,-500 0,-276.151 -223.85,-499.998 -500,-499.998 -72.12,0 -140.62,15.386 -202.56,42.879 L 2281.7,0 4082.16,0 c 198.82,0 360,161.18 360,360 l 0,1386.58 -1023.27,1023.27 c -57.03,-22.63 -119.15,-35.2 -184.24,-35.2" />
    </g>
  </g>
</svg>
