<?xml version="1.0" encoding="UTF-8" standalone="no"?>
<svg
   xmlns:dc="http://purl.org/dc/elements/1.1/"
   xmlns:cc="http://creativecommons.org/ns#"
   xmlns:rdf="http://www.w3.org/1999/02/22-rdf-syntax-ns#"
   xmlns:svg="http://www.w3.org/2000/svg"
   xmlns="http://www.w3.org/2000/svg"
   viewBox="0 0 682.66669 682.66669"
   height="682.66669"
   width="682.66669"
   xml:space="preserve"
   version="1.1"
   id="svg2"><metadata
     id="metadata8"><rdf:RDF><cc:Work
         rdf:about=""><dc:format>image/svg+xml</dc:format><dc:type
           rdf:resource="http://purl.org/dc/dcmitype/StillImage" /></cc:Work></rdf:RDF></metadata><defs
     id="defs6" /><g
     transform="matrix(1.3333333,0,0,-1.3333333,0,682.66667)"
     id="g10"><g
       transform="scale(0.1)"
       id="g12"><path
         id="path14"
         d="m 1184.3,3728.24 c 0,-114.58 92.88,-207.47 207.46,-207.47 114.59,0 207.47,92.89 207.47,207.47 0,114.58 -92.88,207.46 -207.47,207.46 -114.58,0 -207.46,-92.88 -207.46,-207.46" /><path
         id="path16"
         d="m 3935.7,3728.24 c 0,114.58 -92.88,207.46 -207.46,207.46 -114.58,0 -207.47,-92.88 -207.47,-207.46 0,-114.58 92.89,-207.47 207.47,-207.47 114.58,0 207.46,92.89 207.46,207.47" /><path
         id="path18"
         d="m 3935.7,1391.76 c 0,114.58 -92.88,207.47 -207.46,207.47 -114.58,0 -207.47,-92.89 -207.47,-207.47 0,-114.58 92.89,-207.46 207.47,-207.46 114.58,0 207.46,92.88 207.46,207.46" /><path
         id="path20"
         d="m 1611.31,1391.76 c 0,114.58 -92.89,207.47 -207.47,207.47 -114.58,0 -207.47,-92.89 -207.47,-207.47 0,-114.58 92.89,-207.46 207.47,-207.46 114.58,0 207.47,92.88 207.47,207.46" /><path
         id="path22"
         d="M 4705.07,5120 3106.9,5120 1927.49,3940.59 c 26.08,-65.74 40.57,-137.33 40.57,-212.35 0,-318.28 -258.02,-576.3 -576.3,-576.3 -318.27,0 -576.291,258.02 -576.291,576.3 0,318.28 258.021,576.29 576.291,576.29 91.16,0 177.32,-21.24 253.95,-58.92 L 2520.1,5120 414.934,5120 C 185.773,5120 0,4934.23 0,4705.07 L 0,3076.93 1158.3,1918.64 c 71.38,31.68 150.33,49.42 233.46,49.42 83.14,0 162.09,-17.74 233.47,-49.42 l 1576.13,1576.13 c -31.68,71.38 -49.42,150.33 -49.42,233.47 0,318.28 258.02,576.29 576.3,576.29 318.27,0 576.29,-258.01 576.29,-576.29 0,-91.16 -21.24,-177.32 -58.92,-253.95 L 5120,2599.9 l 0,2105.17 c 0,229.16 -185.77,414.93 -414.93,414.93" /><path
         id="path24"
         d="m 3728.24,3151.94 c -83.14,0 -162.09,17.74 -233.47,49.42 L 1918.64,1625.23 c 31.68,-71.38 49.42,-150.33 49.42,-233.47 0,-318.27 -258.02,-576.291 -576.3,-576.291 -318.27,0 -576.291,258.021 -576.291,576.291 0,83.14 17.742,162.09 49.426,233.47 L 0,2490.13 0,414.93 C 0,185.77 185.773,0 414.934,0 L 2043.07,0 3201.36,1158.29 c -31.68,71.39 -49.42,150.34 -49.42,233.47 0,318.28 258.02,576.3 576.3,576.3 318.27,0 576.29,-258.02 576.29,-576.3 0,-318.27 -258.02,-576.291 -576.29,-576.291 -83.14,0 -162.09,17.742 -233.47,49.422 L 2629.87,0 4705.07,0 C 4934.23,0 5120,185.77 5120,414.93 l 0,1598.17 -1179.41,1179.41 c -65.74,-26.08 -137.33,-40.57 -212.35,-40.57" /></g></g></svg>
